{"title":"Ragini MMS 2 (2014)Uncut Web-HDRip XviD Mp3 (1CD)E-Subs {VikkyMa","uid":10151046,"size":738375664,"categoryP":"video","categoryS":"movies","magnet":"?xt=urn:btih:5bee307b51307daa715eb407e365b43739a61034&amp;dn=Ragini+MMS+2+%282014%29Uncut+Web-HDRip+XviD+Mp3+%281CD%29E-Subs+%7BVikkyMa&amp;tr=udp%3A%2F%2Ftracker.openbittorrent.com%3A80&amp;tr=udp%3A%2F%2Fopen.demonii.com%3A1337&amp;tr=udp%3A%2F%2Ftracker.coppersurfer.tk%3A6969&amp;tr=udp%3A%2F%2Fexodus.desync.com%3A6969","seeders":1,"leechers":0,"uploader":"shailendramaxx","files":19,"time":1400101557,"description":"VikkyMaxx SilverRG Presents:-\n\n\nGeneral:-\n \nComplete name :Ragini MMS 2 (2014) Uncut Web-HDRip XviD Mp3(1CD)E-Subs{VikkyMaxx}[SilverRG]\nFormat : AVI \nFormat/Info : Audio Video Interleave \nFile size : 694 MiB \nDuration : 1h 55mn \nOverall bit rate : 842 Kbps \n\nVideo:-\n \nID : 0 \nFormat : MPEG-4 Visual \nFormat profile : Advanced Simple@L5 \nFormat settings, BVOP : 2 \nFormat settings, QPel : No \nFormat settings, GMC : No warppoints \nFormat settings, Matrix : Default (H.263) \nCodec ID : XVID \nCodec ID/Hint : XviD \nDuration : 1h 55mn \nBit rate : 740 Kbps \nWidth : 640 pixels \nHeight : 272 pixels \nDisplay aspect ratio : 2.35:1 \nFrame rate : 25.000 fps \nColor space : YUV \nChroma subsampling : 4:2:0 \nBit depth : 8 bits \nScan type : Progressive \nCompression mode : Lossy \nBits/(Pixel*Frame) : 0.170 \nStream size : 610 MiB (88%) \nWriting library : XviD 1.2.1 (UTC 2008-12-04) \n\nAudio:-\n \nID : 1 \nFormat : MPEG Audio \nFormat version : Version 1 \nFormat profile : Layer 3 \nMode : Joint stereo \nMode extension : MS Stereo \nCodec ID : 55 \nCodec ID/Hint : MP3 \nDuration : 1h 55mn \nBit rate mode : Constant \nBit rate : 96.0 Kbps \nChannel(s) : 2 channels \nSampling rate : 32.0 KHz \nCompression mode : Lossy \nStream size : 79.2 MiB (11%) \nAlignment : Aligned on interleaves \nInterleave, duration : 160 ms (4.00 video frames) \nInterleave, preload duration : 216 ms \nWriting library : LAME3.99r \nEncoding settings : -m j -V 4 -q 2 -lowpass 15.1 -b 96 \nLanguage: HINDI\n\n\n\nSCREENS:-\n\n[IMG]http://i.imgur.com/P35yvmA.png[/IMG]\n\n[IMG]http://i.imgur.com/pteJfyP.png[/IMG]\n\n[IMG]http://i.imgur.com/G9uN2hY.png[/IMG]\n\n[IMG]http://i.imgur.com/OqQHc76.png[/IMG]\n\n[IMG]http://i.imgur.com/D1HiRQC.png[/IMG]\n\n[IMG]http://i.imgur.com/k8L1a9m.png[/IMG]\n\n[IMG]http://i.imgur.com/5FbFn2X.png[/IMG]\n\n[IMG]http://i.imgur.com/UK1CZOV.png[/IMG]\n\n[IMG]http://i.imgur.com/fz21JMS.png[/IMG]\n\n[IMG]http://i.imgur.com/pbKYIN1.png[/IMG]\n\n\n\nSAMPLE AND SCREENSHOTS INCLUDED\n\n    \n             \n             ********** PLEASE SEED AS LONG AS YOU CAN AFTER DOWNLOAD **********\n       \n                    ***** THANK YOU REGARDS - VIKKYMAXX (SilverRG) *****\n\n\n","torrent":{"xt":"urn:btih:5bee307b51307daa715eb407e365b43739a61034","amp;dn":"Ragini+MMS+2+%282014%29Uncut+Web-HDRip+XviD+Mp3+%281CD%29E-Subs+%7BVikkyMa","amp;tr":["udp%3A%2F%2Ftracker.openbittorrent.com%3A80","udp%3A%2F%2Fopen.demonii.com%3A1337","udp%3A%2F%2Ftracker.coppersurfer.tk%3A6969","udp%3A%2F%2Fexodus.desync.com%3A6969"],"infoHash":"5bee307b51307daa715eb407e365b43739a61034","infoHashBuffer":{"type":"Buffer","data":[91,238,48,123,81,48,125,170,113,94,180,7,227,101,180,55,57,166,16,52]},"announce":[],"urlList":[]}}